<?xml version="1.0" standalone="no"?>
<!DOCTYPE svg PUBLIC "-//W3C//DTD SVG 20010904//EN"
 "http://www.w3.org/TR/2001/REC-SVG-20010904/DTD/svg10.dtd">
<svg version="1.0" xmlns="http://www.w3.org/2000/svg"
 width="327.000000pt" height="327.000000pt" viewBox="0 0 327.000000 327.000000"
 preserveAspectRatio="xMidYMid meet">
<metadata>
Created by potrace 1.11, written by Peter Selinger 2001-2013
</metadata>
<g transform="translate(0.000000,327.000000) scale(0.100000,-0.100000)"
fill="#000000" stroke="none">
<path d="M1866 3031 c-3 -4 -26 -11 -52 -15 -171 -23 -274 -156 -275 -357 0
-46 2 -104 5 -129 3 -25 6 -65 5 -88 0 -24 4 -42 8 -39 4 3 8 -15 8 -38 l1
-44 -33 20 c-17 11 -42 22 -55 24 -13 3 -33 16 -44 31 -14 17 -26 24 -35 19
-8 -5 -11 -4 -6 0 4 5 -7 15 -25 23 -18 8 -27 16 -20 19 13 5 -3 25 -94 117
-72 73 -107 99 -219 163 -55 31 -102 60 -105 63 -8 10 -76 40 -137 61 -79 27
-137 23 -199 -14 -51 -30 -51 -30 -42 -66 12 -42 42 -83 53 -73 5 4 5 -1 2
-11 -6 -15 -3 -16 12 -7 11 5 21 7 23 2 2 -4 29 -20 61 -36 31 -15 57 -30 57
-32 0 -7 -43 6 -56 17 -11 9 -14 8 -14 -2 0 -8 -6 -5 -15 7 -8 10 -15 15 -15
11 0 -4 -10 -2 -22 4 -22 11 -22 11 2 -16 34 -37 134 -86 266 -130 60 -20 117
-39 127 -41 9 -2 26 -6 38 -9 11 -2 29 -7 39 -10 10 -3 27 -7 37 -9 61 -12
111 -20 128 -21 11 -1 37 -9 58 -18 20 -9 37 -13 37 -9 0 3 7 -4 16 -17 11
-15 23 -21 36 -18 11 3 17 3 14 0 -3 -3 10 -24 28 -47 18 -22 41 -56 52 -73
10 -18 24 -33 31 -33 8 0 17 -8 20 -17 4 -10 16 -31 28 -48 27 -38 82 -161 89
-199 3 -16 8 -31 10 -34 3 -3 1 -11 -5 -18 -7 -8 -6 -14 2 -20 8 -5 9 -3 4 6
-5 9 -4 11 3 6 16 -10 15 -41 -2 -55 -8 -7 -26 -10 -42 -7 -15 3 -32 2 -38 -2
-6 -4 -38 -7 -71 -8 -110 -2 -264 -14 -287 -23 -35 -14 -62 -49 -101 -131 -49
-106 -49 -105 -22 -133 20 -19 34 -24 68 -22 73 4 109 20 362 163 11 6 48 24
82 41 66 32 73 30 88 -19 4 -14 11 -27 14 -30 4 -3 12 -23 18 -44 11 -36 10
-40 -14 -59 -36 -29 -63 -59 -63 -71 0 -6 -5 -4 -10 4 -8 13 -10 13 -10 -2 0
-12 -5 -15 -17 -11 -13 5 -15 3 -9 -12 4 -11 4 -16 0 -12 -10 10 -73 -60 -80
-89 -4 -13 -10 -24 -14 -24 -7 0 -16 -21 -25 -57 -2 -7 -10 -26 -18 -43 -9
-17 -11 -28 -6 -25 5 3 6 -1 3 -9 -3 -9 -11 -16 -18 -16 -6 0 -4 -5 4 -10 8
-5 10 -10 4 -10 -6 0 -10 -10 -9 -23 1 -12 -2 -32 -6 -44 -6 -15 -5 -23 2 -23
8 0 8 -4 0 -13 -8 -10 -7 -17 2 -27 9 -10 9 -11 0 -6 -20 11 -16 -50 5 -81 9
-15 12 -24 5 -20 -7 5 -9 0 -6 -13 3 -11 12 -20 20 -20 8 0 27 -10 42 -23 15
-12 42 -33 59 -46 18 -13 32 -31 32 -40 0 -14 2 -14 10 -1 9 13 10 13 11 0 1
-8 1 -19 0 -24 -1 -5 5 -6 14 -3 10 5 15 0 15 -14 0 -12 8 -23 20 -26 11 -3
20 -8 20 -12 0 -11 156 -62 201 -67 37 -3 74 -16 97 -35 14 -10 21 -20 16 -20
-5 -1 4 -4 21 -8 28 -6 29 -8 26 -56 -1 -28 -4 -66 -6 -85 -2 -19 -7 -80 -10
-135 -4 -55 -9 -103 -12 -107 -2 -5 1 -8 6 -8 6 0 11 3 12 8 1 16 8 59 13 87
3 17 8 73 12 125 3 52 8 97 10 99 2 2 -1 12 -7 22 -7 13 -6 19 1 19 6 0 8 5 4
12 -5 8 -2 9 10 5 10 -4 20 -7 22 -7 2 0 4 -8 4 -18 0 -21 45 -64 56 -54 4 4
4 1 0 -5 -4 -8 -2 -13 5 -13 7 0 9 -3 6 -6 -3 -4 -2 -14 3 -24 5 -9 11 -30 14
-46 3 -16 10 -30 14 -32 5 -1 7 -14 4 -27 -2 -14 0 -25 7 -25 7 0 8 -8 1 -24
-7 -18 -5 -28 6 -37 8 -7 13 -18 10 -26 -3 -7 -1 -13 4 -13 6 0 6 -9 0 -25 -7
-18 -6 -25 3 -25 8 0 8 -3 -2 -9 -10 -7 -10 -10 -1 -13 10 -3 10 -9 2 -25 -11
-20 -7 -33 10 -33 5 0 6 10 3 21 -5 15 -4 19 4 15 6 -4 11 0 11 8 0 9 -4 16
-8 16 -4 0 -9 12 -10 27 -3 33 10 21 28 -27 7 -19 26 -52 42 -73 17 -21 27
-41 23 -45 -3 -3 -10 0 -15 8 -6 10 -10 11 -10 3 0 -7 10 -17 21 -24 17 -9 20
-8 14 2 -6 9 -4 11 7 6 11 -4 8 6 -10 34 -14 21 -29 39 -34 39 -4 0 -8 8 -8
18 0 10 -3 22 -7 26 -4 3 -8 16 -10 27 -2 11 -10 27 -18 35 -18 19 -19 31 -2
37 7 3 5 6 -5 6 -14 1 -17 10 -16 48 0 26 -4 49 -10 51 -7 2 -8 11 -2 27 5 14
5 27 1 30 -10 6 -9 31 2 41 4 4 7 2 7 -5 0 -13 88 -161 96 -161 7 0 -35 79
-69 132 -16 26 -34 45 -38 42 -9 -5 -13 11 -9 31 5 25 9 63 9 96 1 19 8 44 17
55 8 10 13 14 10 7 -5 -8 0 -8 18 0 16 8 20 14 13 19 -6 4 -15 4 -21 1 -5 -3
-6 -1 -2 6 4 6 12 9 17 6 5 -4 9 -2 9 3 0 11 36 54 44 52 4 -1 10 0 14 3 4 2
1 2 -5 1 -7 -2 -13 1 -13 6 0 5 -7 7 -15 3 -9 -3 -22 2 -29 12 -12 16 -9 22
19 49 18 17 40 45 48 61 14 27 41 61 107 133 11 12 18 22 14 22 -3 0 -1 7 6
15 16 20 71 125 64 125 -2 0 2 10 11 23 8 13 12 27 8 30 -3 4 -1 7 6 7 7 0 9
5 6 10 -3 6 -3 16 2 23 9 14 14 34 16 60 1 9 4 17 8 17 4 0 6 21 5 46 -1 25 2
48 6 50 4 3 3 16 -2 30 -7 17 -7 23 0 19 6 -3 10 -2 10 4 0 5 -5 11 -11 13 -6
2 -12 13 -13 23 -2 27 -47 94 -69 101 -9 3 -15 9 -12 14 3 4 -12 20 -33 36
-20 15 -40 33 -44 38 -5 7 -8 5 -8 -4 -1 -9 -5 -6 -10 8 -9 21 -20 26 -47 23
-7 -1 -13 3 -13 10 0 8 -5 7 -17 -2 -11 -10 -14 -10 -9 -1 5 8 0 12 -16 13
-33 1 -69 6 -98 14 -48 11 -141 15 -135 5 4 -7 -2 -7 -19 -1 -18 7 -26 6 -29
-3 -3 -8 -17 -12 -31 -11 -14 2 -26 -1 -26 -6 0 -6 -4 -8 -9 -4 -5 3 -12 1
-16 -5 -4 -6 -11 -8 -16 -5 -5 4 -9 1 -9 -5 0 -6 -4 -9 -9 -6 -5 3 -21 -6 -37
-21 -16 -15 -31 -27 -34 -27 -3 -1 -4 -4 -3 -7 1 -3 -3 -6 -10 -6 -7 0 -19 -4
-27 -7 -12 -5 -21 8 -38 62 -26 82 -26 82 -4 82 12 0 11 4 -8 13 -16 8 -29 27
-37 56 -7 24 -18 49 -24 57 -6 8 -8 14 -5 14 4 0 -2 13 -13 29 -11 15 -18 31
-14 35 3 3 1 6 -6 6 -7 0 -9 5 -6 10 3 6 2 10 -4 10 -7 0 -7 8 -2 23 6 14 5
30 -1 41 -14 26 -5 70 32 151 17 39 38 84 45 100 15 35 53 156 59 191 3 13 14
61 25 106 11 46 22 102 25 126 8 66 26 123 36 117 5 -3 12 -1 15 5 4 6 1 9 -7
8 -7 -2 -12 4 -10 12 17 76 18 98 5 115 -7 11 -13 16 -13 12 0 -4 -9 -3 -19 3
-11 5 -22 6 -25 1z m387 -2526 c4 -8 3 -16 -1 -19 -4 -3 -9 4 -9 15 -2 23 3
25 10 4z"/>
<path d="M1970 2911 c0 -7 -5 -9 -12 -5 -7 5 -8 3 -3 -5 5 -9 10 -10 18 -2 6
6 8 14 4 18 -4 3 -7 1 -7 -6z"/>
<path d="M2316 77 c3 -10 9 -15 12 -12 3 3 0 11 -7 18 -10 9 -11 8 -5 -6z"/>
</g>
</svg>
